# xmcd CD database file
#
# Track frame offsets:
#	150
#	21320
#	38995
#	58907
#	81760
#	104805
#	121982
#	139430
#	167492
#	186775
#
# Disc length: 2759 seconds
#
# Revision: 4
# Processed by: cddbd v1.5.1PL2 Copyright (c) Steve Scherf et al.
# Submitted via: CDex 1.51
#
DISCID=900ac50a
DTITLE=Eric Jerardi - Virtual Virtue
DYEAR=2002
DGENRE=Blues
TTITLE0=Virtual Virtue
TTITLE1=Blame It On Me
TTITLE2=All Downhill From Here
TTITLE3=Slow Down
TTITLE4=So Long
TTITLE5=Lay Away
TTITLE6=Cold Blooded
TTITLE7=My Word Waits For You
TTITLE8=Still Hungry
TTITLE9=Make It Over On Your Own
EXTD=YEAR: 2002
EXTT0=
EXTT1=
EXTT2=
EXTT3=
EXTT4=
EXTT5=
EXTT6=
EXTT7=
EXTT8=
EXTT9=
PLAYORDER=
